%TF.GenerationSoftware,KiCad,Pcbnew,5.1.8-db9833491~88~ubuntu20.04.1*%
%TF.CreationDate,2020-12-14T11:52:55-05:00*%
%TF.ProjectId,2x5toCortexAdapt,32783574-6f43-46f7-9274-657841646170,rev?*%
%TF.SameCoordinates,Original*%
%TF.FileFunction,Legend,Bot*%
%TF.FilePolarity,Positive*%
%FSLAX46Y46*%
G04 Gerber Fmt 4.6, Leading zero omitted, Abs format (unit mm)*
G04 Created by KiCad (PCBNEW 5.1.8-db9833491~88~ubuntu20.04.1) date 2020-12-14 11:52:55*
%MOMM*%
%LPD*%
G01*
G04 APERTURE LIST*
%ADD10C,0.150000*%
G04 APERTURE END LIST*
D10*
X159630571Y-104481380D02*
X159297238Y-105481380D01*
X158963904Y-104481380D01*
X158678190Y-105195666D02*
X158202000Y-105195666D01*
X158773428Y-105481380D02*
X158440095Y-104481380D01*
X158106761Y-105481380D01*
X157202000Y-105481380D02*
X157535333Y-105005190D01*
X157773428Y-105481380D02*
X157773428Y-104481380D01*
X157392476Y-104481380D01*
X157297238Y-104529000D01*
X157249619Y-104576619D01*
X157202000Y-104671857D01*
X157202000Y-104814714D01*
X157249619Y-104909952D01*
X157297238Y-104957571D01*
X157392476Y-105005190D01*
X157773428Y-105005190D01*
X156773428Y-105481380D02*
X156773428Y-104481380D01*
X156344857Y-105195666D02*
X155868666Y-105195666D01*
X156440095Y-105481380D02*
X156106761Y-104481380D01*
X155773428Y-105481380D01*
X155440095Y-105481380D02*
X155440095Y-104481380D01*
X154868666Y-105481380D01*
X154868666Y-104481380D01*
X154535333Y-104481380D02*
X153963904Y-104481380D01*
X154249619Y-105481380D02*
X154249619Y-104481380D01*
X153630571Y-105100428D02*
X152868666Y-105100428D01*
X152440095Y-104576619D02*
X152392476Y-104529000D01*
X152297238Y-104481380D01*
X152059142Y-104481380D01*
X151963904Y-104529000D01*
X151916285Y-104576619D01*
X151868666Y-104671857D01*
X151868666Y-104767095D01*
X151916285Y-104909952D01*
X152487714Y-105481380D01*
X151868666Y-105481380D01*
M02*
