M48
;DRILL file {KiCad 4.0.0-rc1-stable} date 11/11/2015 5:52:52 PM
;FORMAT={-:-/ absolute / inch / decimal}
FMAT,2
INCH,TZ
T1C0.016
T2C0.028
T3C0.040
%
G90
G05
M72
T1
X6.02Y-4.16
T2
X6.175Y-4.24
X6.175Y-4.29
X6.175Y-4.34
X6.175Y-4.39
X6.175Y-4.44
X6.225Y-4.24
X6.225Y-4.29
X6.225Y-4.34
X6.225Y-4.39
X6.225Y-4.44
T3
X5.82Y-4.14
X5.82Y-4.24
X5.82Y-4.34
X5.82Y-4.44
X5.82Y-4.54
X5.92Y-4.14
X5.92Y-4.24
X5.92Y-4.34
X5.92Y-4.44
X5.92Y-4.54
T0
M30
