%TF.GenerationSoftware,KiCad,Pcbnew,5.1.8-db9833491~88~ubuntu20.04.1*%
%TF.CreationDate,2020-12-14T11:52:55-05:00*%
%TF.ProjectId,stlink-clone-adapter,32783574-6f43-46f7-9274-657841646170,rev?*%
%TF.SameCoordinates,Original*%
%TF.FileFunction,Copper,L1,Top*%
%TF.FilePolarity,Positive*%
%FSLAX46Y46*%
G04 Gerber Fmt 4.6, Leading zero omitted, Abs format (unit mm)*
G04 Created by KiCad (PCBNEW 5.1.8-db9833491~88~ubuntu20.04.1) date 2020-12-14 11:52:55*
%MOMM*%
%LPD*%
G01*
G04 APERTURE LIST*
%TA.AperFunction,ComponentPad*%
%ADD10R,1.000000X1.000000*%
%TD*%
%TA.AperFunction,ComponentPad*%
%ADD11C,1.000000*%
%TD*%
%TA.AperFunction,ComponentPad*%
%ADD12R,1.750000X1.750000*%
%TD*%
%TA.AperFunction,ComponentPad*%
%ADD13C,1.750000*%
%TD*%
%TA.AperFunction,Conductor*%
%ADD14C,0.350000*%
%TD*%
%TA.AperFunction,Conductor*%
%ADD15C,0.254000*%
%TD*%
%TA.AperFunction,Conductor*%
%ADD16C,0.100000*%
%TD*%
G04 APERTURE END LIST*
D10*
%TO.P,J2,1*%
%TO.N,/3.3V*%
X156845000Y-107696000D03*
D11*
%TO.P,J2,2*%
%TO.N,/SWDIO*%
X158115000Y-107696000D03*
%TO.P,J2,3*%
%TO.N,/GND*%
X156845000Y-108966000D03*
%TO.P,J2,4*%
%TO.N,/SWCLK*%
X158115000Y-108966000D03*
%TO.P,J2,5*%
%TO.N,/GND*%
X156845000Y-110236000D03*
%TO.P,J2,6*%
%TO.N,/SWIM*%
X158115000Y-110236000D03*
%TO.P,J2,7*%
%TO.N,Net-(J2-Pad7)*%
X156845000Y-111506000D03*
%TO.P,J2,8*%
%TO.N,Net-(J2-Pad8)*%
X158115000Y-111506000D03*
%TO.P,J2,9*%
%TO.N,/GND*%
X156845000Y-112776000D03*
%TO.P,J2,10*%
%TO.N,/RST*%
X158115000Y-112776000D03*
%TD*%
D12*
%TO.P,J1,1*%
%TO.N,/RST*%
X150368000Y-105156000D03*
D13*
%TO.P,J1,2*%
%TO.N,/SWCLK*%
X147828000Y-105156000D03*
%TO.P,J1,3*%
%TO.N,/SWIM*%
X150368000Y-107696000D03*
%TO.P,J1,4*%
%TO.N,/SWDIO*%
X147828000Y-107696000D03*
%TO.P,J1,5*%
%TO.N,/GND*%
X150368000Y-110236000D03*
%TO.P,J1,6*%
X147828000Y-110236000D03*
%TO.P,J1,7*%
%TO.N,/3.3V*%
X150368000Y-112776000D03*
%TO.P,J1,8*%
X147828000Y-112776000D03*
%TO.P,J1,9*%
%TO.N,Net-(J1-Pad9)*%
X150368000Y-115316000D03*
%TO.P,J1,10*%
%TO.N,Net-(J1-Pad10)*%
X147828000Y-115316000D03*
%TD*%
D14*
%TO.N,/RST*%
X158990001Y-111900999D02*
X158115000Y-112776000D01*
X158990001Y-107086064D02*
X158990001Y-111900999D01*
X157059937Y-105156000D02*
X158990001Y-107086064D01*
X150368000Y-105156000D02*
X157059937Y-105156000D01*
%TO.N,/SWDIO*%
X158115000Y-106988894D02*
X158115000Y-107696000D01*
X157572105Y-106445999D02*
X158115000Y-106988894D01*
X149078001Y-106445999D02*
X157572105Y-106445999D01*
X147828000Y-107696000D02*
X149078001Y-106445999D01*
%TO.N,/GND*%
X156845000Y-110236000D02*
X156845000Y-108966000D01*
X155969999Y-111111001D02*
X156845000Y-110236000D01*
X155969999Y-111900999D02*
X155969999Y-111111001D01*
X156845000Y-112776000D02*
X155969999Y-111900999D01*
%TO.N,/3.3V*%
X147828000Y-112776000D02*
X150368000Y-112776000D01*
%TD*%
D15*
%TO.N,/GND*%
X159036953Y-103706783D02*
X159312976Y-103790120D01*
X159567557Y-103925483D01*
X159790994Y-104107714D01*
X159974781Y-104329876D01*
X160111917Y-104583502D01*
X160197179Y-104858940D01*
X160230000Y-105171217D01*
X160230001Y-115288988D01*
X160199217Y-115602953D01*
X160115880Y-115878978D01*
X159980517Y-116133558D01*
X159798288Y-116356993D01*
X159576127Y-116540780D01*
X159322497Y-116677917D01*
X159047061Y-116763179D01*
X158734783Y-116796000D01*
X147855002Y-116796000D01*
X147541047Y-116765217D01*
X147265022Y-116681880D01*
X147010442Y-116546517D01*
X146787007Y-116364288D01*
X146603220Y-116142127D01*
X146466083Y-115888497D01*
X146380821Y-115613061D01*
X146348000Y-115300783D01*
X146348000Y-112642840D01*
X146476000Y-112642840D01*
X146476000Y-112909160D01*
X146527956Y-113170364D01*
X146629873Y-113416412D01*
X146777833Y-113637850D01*
X146966150Y-113826167D01*
X147187588Y-113974127D01*
X147361104Y-114046000D01*
X147187588Y-114117873D01*
X146966150Y-114265833D01*
X146777833Y-114454150D01*
X146629873Y-114675588D01*
X146527956Y-114921636D01*
X146476000Y-115182840D01*
X146476000Y-115449160D01*
X146527956Y-115710364D01*
X146629873Y-115956412D01*
X146777833Y-116177850D01*
X146966150Y-116366167D01*
X147187588Y-116514127D01*
X147433636Y-116616044D01*
X147694840Y-116668000D01*
X147961160Y-116668000D01*
X148222364Y-116616044D01*
X148468412Y-116514127D01*
X148689850Y-116366167D01*
X148878167Y-116177850D01*
X149026127Y-115956412D01*
X149098000Y-115782896D01*
X149169873Y-115956412D01*
X149317833Y-116177850D01*
X149506150Y-116366167D01*
X149727588Y-116514127D01*
X149973636Y-116616044D01*
X150234840Y-116668000D01*
X150501160Y-116668000D01*
X150762364Y-116616044D01*
X151008412Y-116514127D01*
X151229850Y-116366167D01*
X151418167Y-116177850D01*
X151566127Y-115956412D01*
X151668044Y-115710364D01*
X151720000Y-115449160D01*
X151720000Y-115182840D01*
X151668044Y-114921636D01*
X151566127Y-114675588D01*
X151418167Y-114454150D01*
X151229850Y-114265833D01*
X151008412Y-114117873D01*
X150834896Y-114046000D01*
X151008412Y-113974127D01*
X151229850Y-113826167D01*
X151418167Y-113637850D01*
X151566127Y-113416412D01*
X151668044Y-113170364D01*
X151720000Y-112909160D01*
X151720000Y-112642840D01*
X151668044Y-112381636D01*
X151566127Y-112135588D01*
X151418167Y-111914150D01*
X151229850Y-111725833D01*
X151008412Y-111577873D01*
X150837048Y-111506891D01*
X150882955Y-111493162D01*
X151118320Y-111368544D01*
X151127200Y-111362611D01*
X151209713Y-111145595D01*
X150368000Y-110303882D01*
X149526287Y-111145595D01*
X149608800Y-111362611D01*
X149843179Y-111489076D01*
X149899862Y-111506514D01*
X149727588Y-111577873D01*
X149506150Y-111725833D01*
X149317833Y-111914150D01*
X149177616Y-112124000D01*
X149018384Y-112124000D01*
X148878167Y-111914150D01*
X148689850Y-111725833D01*
X148468412Y-111577873D01*
X148297048Y-111506891D01*
X148342955Y-111493162D01*
X148578320Y-111368544D01*
X148587200Y-111362611D01*
X148669713Y-111145595D01*
X147828000Y-110303882D01*
X146986287Y-111145595D01*
X147068800Y-111362611D01*
X147303179Y-111489076D01*
X147359862Y-111506514D01*
X147187588Y-111577873D01*
X146966150Y-111725833D01*
X146777833Y-111914150D01*
X146629873Y-112135588D01*
X146527956Y-112381636D01*
X146476000Y-112642840D01*
X146348000Y-112642840D01*
X146348000Y-110230661D01*
X146469469Y-110230661D01*
X146494531Y-110495800D01*
X146570838Y-110750955D01*
X146695456Y-110986320D01*
X146701389Y-110995200D01*
X146918405Y-111077713D01*
X147760118Y-110236000D01*
X147895882Y-110236000D01*
X148737595Y-111077713D01*
X148954611Y-110995200D01*
X149081076Y-110760821D01*
X149097664Y-110706903D01*
X149110838Y-110750955D01*
X149235456Y-110986320D01*
X149241389Y-110995200D01*
X149458405Y-111077713D01*
X150300118Y-110236000D01*
X150435882Y-110236000D01*
X151277595Y-111077713D01*
X151494611Y-110995200D01*
X151621076Y-110760821D01*
X151699386Y-110506273D01*
X151726531Y-110241339D01*
X151701469Y-109976200D01*
X151625162Y-109721045D01*
X151500544Y-109485680D01*
X151494611Y-109476800D01*
X151277595Y-109394287D01*
X150435882Y-110236000D01*
X150300118Y-110236000D01*
X149458405Y-109394287D01*
X149241389Y-109476800D01*
X149114924Y-109711179D01*
X149098336Y-109765097D01*
X149085162Y-109721045D01*
X148960544Y-109485680D01*
X148954611Y-109476800D01*
X148737595Y-109394287D01*
X147895882Y-110236000D01*
X147760118Y-110236000D01*
X146918405Y-109394287D01*
X146701389Y-109476800D01*
X146574924Y-109711179D01*
X146496614Y-109965727D01*
X146469469Y-110230661D01*
X146348000Y-110230661D01*
X146348000Y-105183002D01*
X146363703Y-105022840D01*
X146476000Y-105022840D01*
X146476000Y-105289160D01*
X146527956Y-105550364D01*
X146629873Y-105796412D01*
X146777833Y-106017850D01*
X146966150Y-106206167D01*
X147187588Y-106354127D01*
X147361104Y-106426000D01*
X147187588Y-106497873D01*
X146966150Y-106645833D01*
X146777833Y-106834150D01*
X146629873Y-107055588D01*
X146527956Y-107301636D01*
X146476000Y-107562840D01*
X146476000Y-107829160D01*
X146527956Y-108090364D01*
X146629873Y-108336412D01*
X146777833Y-108557850D01*
X146966150Y-108746167D01*
X147187588Y-108894127D01*
X147358952Y-108965109D01*
X147313045Y-108978838D01*
X147077680Y-109103456D01*
X147068800Y-109109389D01*
X146986287Y-109326405D01*
X147828000Y-110168118D01*
X148669713Y-109326405D01*
X148587200Y-109109389D01*
X148352821Y-108982924D01*
X148296138Y-108965486D01*
X148468412Y-108894127D01*
X148689850Y-108746167D01*
X148878167Y-108557850D01*
X149026127Y-108336412D01*
X149098000Y-108162896D01*
X149169873Y-108336412D01*
X149317833Y-108557850D01*
X149506150Y-108746167D01*
X149727588Y-108894127D01*
X149898952Y-108965109D01*
X149853045Y-108978838D01*
X149617680Y-109103456D01*
X149608800Y-109109389D01*
X149526287Y-109326405D01*
X150368000Y-110168118D01*
X151209713Y-109326405D01*
X151127200Y-109109389D01*
X150892821Y-108982924D01*
X150836138Y-108965486D01*
X151008412Y-108894127D01*
X151229850Y-108746167D01*
X151418167Y-108557850D01*
X151566127Y-108336412D01*
X151668044Y-108090364D01*
X151720000Y-107829160D01*
X151720000Y-107562840D01*
X151668044Y-107301636D01*
X151583694Y-107097999D01*
X155876266Y-107097999D01*
X155874903Y-107102492D01*
X155865693Y-107196000D01*
X155865693Y-108196000D01*
X155874903Y-108289508D01*
X155902178Y-108379423D01*
X155946471Y-108462289D01*
X155982758Y-108506505D01*
X155934422Y-108599072D01*
X155880335Y-108783768D01*
X155863319Y-108975466D01*
X155884028Y-109166801D01*
X155941667Y-109350419D01*
X156023502Y-109503522D01*
X156202141Y-109540977D01*
X156301870Y-109441248D01*
X156270023Y-109593141D01*
X156277882Y-109601000D01*
X156270023Y-109608859D01*
X156301870Y-109760752D01*
X156202141Y-109661023D01*
X156023502Y-109698478D01*
X155934422Y-109869072D01*
X155880335Y-110053768D01*
X155863319Y-110245466D01*
X155884028Y-110436801D01*
X155941667Y-110620419D01*
X156023502Y-110773522D01*
X156165929Y-110803385D01*
X156086115Y-110883199D01*
X155979194Y-111043217D01*
X155905546Y-111221020D01*
X155868000Y-111409774D01*
X155868000Y-111602226D01*
X155905546Y-111790980D01*
X155979194Y-111968783D01*
X156086115Y-112128801D01*
X156165929Y-112208615D01*
X156023502Y-112238478D01*
X155934422Y-112409072D01*
X155880335Y-112593768D01*
X155863319Y-112785466D01*
X155884028Y-112976801D01*
X155941667Y-113160419D01*
X156023502Y-113313522D01*
X156202141Y-113350977D01*
X156777118Y-112776000D01*
X156762976Y-112761858D01*
X156830858Y-112693976D01*
X156845000Y-112708118D01*
X156859143Y-112693976D01*
X156927025Y-112761858D01*
X156912882Y-112776000D01*
X156927025Y-112790143D01*
X156859143Y-112858025D01*
X156845000Y-112843882D01*
X156270023Y-113418859D01*
X156307478Y-113597498D01*
X156478072Y-113686578D01*
X156662768Y-113740665D01*
X156854466Y-113757681D01*
X157045801Y-113736972D01*
X157229419Y-113679333D01*
X157382522Y-113597498D01*
X157412385Y-113455071D01*
X157492199Y-113534885D01*
X157652217Y-113641806D01*
X157830020Y-113715454D01*
X158018774Y-113753000D01*
X158211226Y-113753000D01*
X158399980Y-113715454D01*
X158577783Y-113641806D01*
X158737801Y-113534885D01*
X158873885Y-113398801D01*
X158980806Y-113238783D01*
X159054454Y-113060980D01*
X159092000Y-112872226D01*
X159092000Y-112721067D01*
X159428388Y-112384679D01*
X159453265Y-112364263D01*
X159534742Y-112264983D01*
X159595284Y-112151716D01*
X159632566Y-112028813D01*
X159642001Y-111933021D01*
X159645155Y-111901000D01*
X159642001Y-111868978D01*
X159642001Y-107118086D01*
X159645155Y-107086064D01*
X159632566Y-106958249D01*
X159603090Y-106861080D01*
X159595284Y-106835347D01*
X159534742Y-106722080D01*
X159453265Y-106622800D01*
X159428389Y-106602385D01*
X157543622Y-104717619D01*
X157523201Y-104692736D01*
X157423921Y-104611259D01*
X157310654Y-104550717D01*
X157187751Y-104513435D01*
X157091959Y-104504000D01*
X157059937Y-104500846D01*
X157027915Y-104504000D01*
X151722307Y-104504000D01*
X151722307Y-104281000D01*
X151713097Y-104187492D01*
X151685822Y-104097577D01*
X151641529Y-104014711D01*
X151581921Y-103942079D01*
X151509289Y-103882471D01*
X151426423Y-103838178D01*
X151336508Y-103810903D01*
X151243000Y-103801693D01*
X149493000Y-103801693D01*
X149399492Y-103810903D01*
X149309577Y-103838178D01*
X149226711Y-103882471D01*
X149154079Y-103942079D01*
X149094471Y-104014711D01*
X149050178Y-104097577D01*
X149022903Y-104187492D01*
X149013693Y-104281000D01*
X149013693Y-104496979D01*
X148878167Y-104294150D01*
X148689850Y-104105833D01*
X148468412Y-103957873D01*
X148222364Y-103855956D01*
X147961160Y-103804000D01*
X147694840Y-103804000D01*
X147433636Y-103855956D01*
X147187588Y-103957873D01*
X146966150Y-104105833D01*
X146777833Y-104294150D01*
X146629873Y-104515588D01*
X146527956Y-104761636D01*
X146476000Y-105022840D01*
X146363703Y-105022840D01*
X146378783Y-104869047D01*
X146462120Y-104593024D01*
X146597483Y-104338443D01*
X146779714Y-104115006D01*
X147001876Y-103931219D01*
X147255502Y-103794083D01*
X147530940Y-103708821D01*
X147843217Y-103676000D01*
X158722998Y-103676000D01*
X159036953Y-103706783D01*
%TA.AperFunction,Conductor*%
D16*
G36*
X159036953Y-103706783D02*
G01*
X159312976Y-103790120D01*
X159567557Y-103925483D01*
X159790994Y-104107714D01*
X159974781Y-104329876D01*
X160111917Y-104583502D01*
X160197179Y-104858940D01*
X160230000Y-105171217D01*
X160230001Y-115288988D01*
X160199217Y-115602953D01*
X160115880Y-115878978D01*
X159980517Y-116133558D01*
X159798288Y-116356993D01*
X159576127Y-116540780D01*
X159322497Y-116677917D01*
X159047061Y-116763179D01*
X158734783Y-116796000D01*
X147855002Y-116796000D01*
X147541047Y-116765217D01*
X147265022Y-116681880D01*
X147010442Y-116546517D01*
X146787007Y-116364288D01*
X146603220Y-116142127D01*
X146466083Y-115888497D01*
X146380821Y-115613061D01*
X146348000Y-115300783D01*
X146348000Y-112642840D01*
X146476000Y-112642840D01*
X146476000Y-112909160D01*
X146527956Y-113170364D01*
X146629873Y-113416412D01*
X146777833Y-113637850D01*
X146966150Y-113826167D01*
X147187588Y-113974127D01*
X147361104Y-114046000D01*
X147187588Y-114117873D01*
X146966150Y-114265833D01*
X146777833Y-114454150D01*
X146629873Y-114675588D01*
X146527956Y-114921636D01*
X146476000Y-115182840D01*
X146476000Y-115449160D01*
X146527956Y-115710364D01*
X146629873Y-115956412D01*
X146777833Y-116177850D01*
X146966150Y-116366167D01*
X147187588Y-116514127D01*
X147433636Y-116616044D01*
X147694840Y-116668000D01*
X147961160Y-116668000D01*
X148222364Y-116616044D01*
X148468412Y-116514127D01*
X148689850Y-116366167D01*
X148878167Y-116177850D01*
X149026127Y-115956412D01*
X149098000Y-115782896D01*
X149169873Y-115956412D01*
X149317833Y-116177850D01*
X149506150Y-116366167D01*
X149727588Y-116514127D01*
X149973636Y-116616044D01*
X150234840Y-116668000D01*
X150501160Y-116668000D01*
X150762364Y-116616044D01*
X151008412Y-116514127D01*
X151229850Y-116366167D01*
X151418167Y-116177850D01*
X151566127Y-115956412D01*
X151668044Y-115710364D01*
X151720000Y-115449160D01*
X151720000Y-115182840D01*
X151668044Y-114921636D01*
X151566127Y-114675588D01*
X151418167Y-114454150D01*
X151229850Y-114265833D01*
X151008412Y-114117873D01*
X150834896Y-114046000D01*
X151008412Y-113974127D01*
X151229850Y-113826167D01*
X151418167Y-113637850D01*
X151566127Y-113416412D01*
X151668044Y-113170364D01*
X151720000Y-112909160D01*
X151720000Y-112642840D01*
X151668044Y-112381636D01*
X151566127Y-112135588D01*
X151418167Y-111914150D01*
X151229850Y-111725833D01*
X151008412Y-111577873D01*
X150837048Y-111506891D01*
X150882955Y-111493162D01*
X151118320Y-111368544D01*
X151127200Y-111362611D01*
X151209713Y-111145595D01*
X150368000Y-110303882D01*
X149526287Y-111145595D01*
X149608800Y-111362611D01*
X149843179Y-111489076D01*
X149899862Y-111506514D01*
X149727588Y-111577873D01*
X149506150Y-111725833D01*
X149317833Y-111914150D01*
X149177616Y-112124000D01*
X149018384Y-112124000D01*
X148878167Y-111914150D01*
X148689850Y-111725833D01*
X148468412Y-111577873D01*
X148297048Y-111506891D01*
X148342955Y-111493162D01*
X148578320Y-111368544D01*
X148587200Y-111362611D01*
X148669713Y-111145595D01*
X147828000Y-110303882D01*
X146986287Y-111145595D01*
X147068800Y-111362611D01*
X147303179Y-111489076D01*
X147359862Y-111506514D01*
X147187588Y-111577873D01*
X146966150Y-111725833D01*
X146777833Y-111914150D01*
X146629873Y-112135588D01*
X146527956Y-112381636D01*
X146476000Y-112642840D01*
X146348000Y-112642840D01*
X146348000Y-110230661D01*
X146469469Y-110230661D01*
X146494531Y-110495800D01*
X146570838Y-110750955D01*
X146695456Y-110986320D01*
X146701389Y-110995200D01*
X146918405Y-111077713D01*
X147760118Y-110236000D01*
X147895882Y-110236000D01*
X148737595Y-111077713D01*
X148954611Y-110995200D01*
X149081076Y-110760821D01*
X149097664Y-110706903D01*
X149110838Y-110750955D01*
X149235456Y-110986320D01*
X149241389Y-110995200D01*
X149458405Y-111077713D01*
X150300118Y-110236000D01*
X150435882Y-110236000D01*
X151277595Y-111077713D01*
X151494611Y-110995200D01*
X151621076Y-110760821D01*
X151699386Y-110506273D01*
X151726531Y-110241339D01*
X151701469Y-109976200D01*
X151625162Y-109721045D01*
X151500544Y-109485680D01*
X151494611Y-109476800D01*
X151277595Y-109394287D01*
X150435882Y-110236000D01*
X150300118Y-110236000D01*
X149458405Y-109394287D01*
X149241389Y-109476800D01*
X149114924Y-109711179D01*
X149098336Y-109765097D01*
X149085162Y-109721045D01*
X148960544Y-109485680D01*
X148954611Y-109476800D01*
X148737595Y-109394287D01*
X147895882Y-110236000D01*
X147760118Y-110236000D01*
X146918405Y-109394287D01*
X146701389Y-109476800D01*
X146574924Y-109711179D01*
X146496614Y-109965727D01*
X146469469Y-110230661D01*
X146348000Y-110230661D01*
X146348000Y-105183002D01*
X146363703Y-105022840D01*
X146476000Y-105022840D01*
X146476000Y-105289160D01*
X146527956Y-105550364D01*
X146629873Y-105796412D01*
X146777833Y-106017850D01*
X146966150Y-106206167D01*
X147187588Y-106354127D01*
X147361104Y-106426000D01*
X147187588Y-106497873D01*
X146966150Y-106645833D01*
X146777833Y-106834150D01*
X146629873Y-107055588D01*
X146527956Y-107301636D01*
X146476000Y-107562840D01*
X146476000Y-107829160D01*
X146527956Y-108090364D01*
X146629873Y-108336412D01*
X146777833Y-108557850D01*
X146966150Y-108746167D01*
X147187588Y-108894127D01*
X147358952Y-108965109D01*
X147313045Y-108978838D01*
X147077680Y-109103456D01*
X147068800Y-109109389D01*
X146986287Y-109326405D01*
X147828000Y-110168118D01*
X148669713Y-109326405D01*
X148587200Y-109109389D01*
X148352821Y-108982924D01*
X148296138Y-108965486D01*
X148468412Y-108894127D01*
X148689850Y-108746167D01*
X148878167Y-108557850D01*
X149026127Y-108336412D01*
X149098000Y-108162896D01*
X149169873Y-108336412D01*
X149317833Y-108557850D01*
X149506150Y-108746167D01*
X149727588Y-108894127D01*
X149898952Y-108965109D01*
X149853045Y-108978838D01*
X149617680Y-109103456D01*
X149608800Y-109109389D01*
X149526287Y-109326405D01*
X150368000Y-110168118D01*
X151209713Y-109326405D01*
X151127200Y-109109389D01*
X150892821Y-108982924D01*
X150836138Y-108965486D01*
X151008412Y-108894127D01*
X151229850Y-108746167D01*
X151418167Y-108557850D01*
X151566127Y-108336412D01*
X151668044Y-108090364D01*
X151720000Y-107829160D01*
X151720000Y-107562840D01*
X151668044Y-107301636D01*
X151583694Y-107097999D01*
X155876266Y-107097999D01*
X155874903Y-107102492D01*
X155865693Y-107196000D01*
X155865693Y-108196000D01*
X155874903Y-108289508D01*
X155902178Y-108379423D01*
X155946471Y-108462289D01*
X155982758Y-108506505D01*
X155934422Y-108599072D01*
X155880335Y-108783768D01*
X155863319Y-108975466D01*
X155884028Y-109166801D01*
X155941667Y-109350419D01*
X156023502Y-109503522D01*
X156202141Y-109540977D01*
X156301870Y-109441248D01*
X156270023Y-109593141D01*
X156277882Y-109601000D01*
X156270023Y-109608859D01*
X156301870Y-109760752D01*
X156202141Y-109661023D01*
X156023502Y-109698478D01*
X155934422Y-109869072D01*
X155880335Y-110053768D01*
X155863319Y-110245466D01*
X155884028Y-110436801D01*
X155941667Y-110620419D01*
X156023502Y-110773522D01*
X156165929Y-110803385D01*
X156086115Y-110883199D01*
X155979194Y-111043217D01*
X155905546Y-111221020D01*
X155868000Y-111409774D01*
X155868000Y-111602226D01*
X155905546Y-111790980D01*
X155979194Y-111968783D01*
X156086115Y-112128801D01*
X156165929Y-112208615D01*
X156023502Y-112238478D01*
X155934422Y-112409072D01*
X155880335Y-112593768D01*
X155863319Y-112785466D01*
X155884028Y-112976801D01*
X155941667Y-113160419D01*
X156023502Y-113313522D01*
X156202141Y-113350977D01*
X156777118Y-112776000D01*
X156762976Y-112761858D01*
X156830858Y-112693976D01*
X156845000Y-112708118D01*
X156859143Y-112693976D01*
X156927025Y-112761858D01*
X156912882Y-112776000D01*
X156927025Y-112790143D01*
X156859143Y-112858025D01*
X156845000Y-112843882D01*
X156270023Y-113418859D01*
X156307478Y-113597498D01*
X156478072Y-113686578D01*
X156662768Y-113740665D01*
X156854466Y-113757681D01*
X157045801Y-113736972D01*
X157229419Y-113679333D01*
X157382522Y-113597498D01*
X157412385Y-113455071D01*
X157492199Y-113534885D01*
X157652217Y-113641806D01*
X157830020Y-113715454D01*
X158018774Y-113753000D01*
X158211226Y-113753000D01*
X158399980Y-113715454D01*
X158577783Y-113641806D01*
X158737801Y-113534885D01*
X158873885Y-113398801D01*
X158980806Y-113238783D01*
X159054454Y-113060980D01*
X159092000Y-112872226D01*
X159092000Y-112721067D01*
X159428388Y-112384679D01*
X159453265Y-112364263D01*
X159534742Y-112264983D01*
X159595284Y-112151716D01*
X159632566Y-112028813D01*
X159642001Y-111933021D01*
X159645155Y-111901000D01*
X159642001Y-111868978D01*
X159642001Y-107118086D01*
X159645155Y-107086064D01*
X159632566Y-106958249D01*
X159603090Y-106861080D01*
X159595284Y-106835347D01*
X159534742Y-106722080D01*
X159453265Y-106622800D01*
X159428389Y-106602385D01*
X157543622Y-104717619D01*
X157523201Y-104692736D01*
X157423921Y-104611259D01*
X157310654Y-104550717D01*
X157187751Y-104513435D01*
X157091959Y-104504000D01*
X157059937Y-104500846D01*
X157027915Y-104504000D01*
X151722307Y-104504000D01*
X151722307Y-104281000D01*
X151713097Y-104187492D01*
X151685822Y-104097577D01*
X151641529Y-104014711D01*
X151581921Y-103942079D01*
X151509289Y-103882471D01*
X151426423Y-103838178D01*
X151336508Y-103810903D01*
X151243000Y-103801693D01*
X149493000Y-103801693D01*
X149399492Y-103810903D01*
X149309577Y-103838178D01*
X149226711Y-103882471D01*
X149154079Y-103942079D01*
X149094471Y-104014711D01*
X149050178Y-104097577D01*
X149022903Y-104187492D01*
X149013693Y-104281000D01*
X149013693Y-104496979D01*
X148878167Y-104294150D01*
X148689850Y-104105833D01*
X148468412Y-103957873D01*
X148222364Y-103855956D01*
X147961160Y-103804000D01*
X147694840Y-103804000D01*
X147433636Y-103855956D01*
X147187588Y-103957873D01*
X146966150Y-104105833D01*
X146777833Y-104294150D01*
X146629873Y-104515588D01*
X146527956Y-104761636D01*
X146476000Y-105022840D01*
X146363703Y-105022840D01*
X146378783Y-104869047D01*
X146462120Y-104593024D01*
X146597483Y-104338443D01*
X146779714Y-104115006D01*
X147001876Y-103931219D01*
X147255502Y-103794083D01*
X147530940Y-103708821D01*
X147843217Y-103676000D01*
X158722998Y-103676000D01*
X159036953Y-103706783D01*
G37*
%TD.AperFunction*%
D15*
X156478072Y-109876578D02*
X156584679Y-109907797D01*
X156845000Y-110168118D01*
X156859143Y-110153976D01*
X156927025Y-110221858D01*
X156912882Y-110236000D01*
X156927025Y-110250143D01*
X156859143Y-110318025D01*
X156845000Y-110303882D01*
X156830858Y-110318025D01*
X156762976Y-110250143D01*
X156777118Y-110236000D01*
X156351716Y-109810598D01*
X156478072Y-109876578D01*
%TA.AperFunction,Conductor*%
D16*
G36*
X156478072Y-109876578D02*
G01*
X156584679Y-109907797D01*
X156845000Y-110168118D01*
X156859143Y-110153976D01*
X156927025Y-110221858D01*
X156912882Y-110236000D01*
X156927025Y-110250143D01*
X156859143Y-110318025D01*
X156845000Y-110303882D01*
X156830858Y-110318025D01*
X156762976Y-110250143D01*
X156777118Y-110236000D01*
X156351716Y-109810598D01*
X156478072Y-109876578D01*
G37*
%TD.AperFunction*%
D15*
X156927025Y-108951858D02*
X156912882Y-108966000D01*
X156927025Y-108980143D01*
X156859143Y-109048025D01*
X156845000Y-109033882D01*
X156585395Y-109293487D01*
X156460581Y-109332667D01*
X156352888Y-109390230D01*
X156777118Y-108966000D01*
X156762976Y-108951858D01*
X156830858Y-108883976D01*
X156845000Y-108898118D01*
X156859143Y-108883976D01*
X156927025Y-108951858D01*
%TA.AperFunction,Conductor*%
D16*
G36*
X156927025Y-108951858D02*
G01*
X156912882Y-108966000D01*
X156927025Y-108980143D01*
X156859143Y-109048025D01*
X156845000Y-109033882D01*
X156585395Y-109293487D01*
X156460581Y-109332667D01*
X156352888Y-109390230D01*
X156777118Y-108966000D01*
X156762976Y-108951858D01*
X156830858Y-108883976D01*
X156845000Y-108898118D01*
X156859143Y-108883976D01*
X156927025Y-108951858D01*
G37*
%TD.AperFunction*%
%TD*%
M02*
