G04 #@! TF.FileFunction,Soldermask,Bot*
%FSLAX46Y46*%
G04 Gerber Fmt 4.6, Leading zero omitted, Abs format (unit mm)*
G04 Created by KiCad (PCBNEW 4.0.0-rc1-stable) date 11/11/2015 5:52:51 PM*
%MOMM*%
G01*
G04 APERTURE LIST*
%ADD10C,0.100000*%
%ADD11C,0.125000*%
%ADD12R,1.400000X1.400000*%
%ADD13C,1.400000*%
%ADD14R,2.150000X2.150000*%
%ADD15C,2.150000*%
G04 APERTURE END LIST*
D10*
D11*
X152321047Y-115930643D02*
X152321047Y-115525881D01*
X152297238Y-115478262D01*
X152273428Y-115454452D01*
X152225809Y-115430643D01*
X152154381Y-115430643D01*
X152106762Y-115454452D01*
X152321047Y-115621119D02*
X152273428Y-115597310D01*
X152178190Y-115597310D01*
X152130571Y-115621119D01*
X152106762Y-115644929D01*
X152082952Y-115692548D01*
X152082952Y-115835405D01*
X152106762Y-115883024D01*
X152130571Y-115906833D01*
X152178190Y-115930643D01*
X152273428Y-115930643D01*
X152321047Y-115906833D01*
X152559143Y-115597310D02*
X152559143Y-115930643D01*
X152559143Y-116097310D02*
X152535333Y-116073500D01*
X152559143Y-116049690D01*
X152582952Y-116073500D01*
X152559143Y-116097310D01*
X152559143Y-116049690D01*
X152725809Y-115930643D02*
X152916285Y-115930643D01*
X152797238Y-116097310D02*
X152797238Y-115668738D01*
X152821047Y-115621119D01*
X152868666Y-115597310D01*
X152916285Y-115597310D01*
X153082952Y-115597310D02*
X153082952Y-116097310D01*
X153297237Y-115597310D02*
X153297237Y-115859214D01*
X153273428Y-115906833D01*
X153225809Y-115930643D01*
X153154380Y-115930643D01*
X153106761Y-115906833D01*
X153082952Y-115883024D01*
X153749618Y-115930643D02*
X153749618Y-115597310D01*
X153535333Y-115930643D02*
X153535333Y-115668738D01*
X153559142Y-115621119D01*
X153606761Y-115597310D01*
X153678190Y-115597310D01*
X153725809Y-115621119D01*
X153749618Y-115644929D01*
X153987714Y-115597310D02*
X153987714Y-116097310D01*
X153987714Y-115906833D02*
X154035333Y-115930643D01*
X154130571Y-115930643D01*
X154178190Y-115906833D01*
X154201999Y-115883024D01*
X154225809Y-115835405D01*
X154225809Y-115692548D01*
X154201999Y-115644929D01*
X154178190Y-115621119D01*
X154130571Y-115597310D01*
X154035333Y-115597310D01*
X153987714Y-115621119D01*
X154440095Y-115644929D02*
X154463904Y-115621119D01*
X154440095Y-115597310D01*
X154416285Y-115621119D01*
X154440095Y-115644929D01*
X154440095Y-115597310D01*
X154892475Y-115621119D02*
X154844856Y-115597310D01*
X154749618Y-115597310D01*
X154701999Y-115621119D01*
X154678190Y-115644929D01*
X154654380Y-115692548D01*
X154654380Y-115835405D01*
X154678190Y-115883024D01*
X154701999Y-115906833D01*
X154749618Y-115930643D01*
X154844856Y-115930643D01*
X154892475Y-115906833D01*
X155178189Y-115597310D02*
X155130570Y-115621119D01*
X155106761Y-115644929D01*
X155082951Y-115692548D01*
X155082951Y-115835405D01*
X155106761Y-115883024D01*
X155130570Y-115906833D01*
X155178189Y-115930643D01*
X155249618Y-115930643D01*
X155297237Y-115906833D01*
X155321046Y-115883024D01*
X155344856Y-115835405D01*
X155344856Y-115692548D01*
X155321046Y-115644929D01*
X155297237Y-115621119D01*
X155249618Y-115597310D01*
X155178189Y-115597310D01*
X155559142Y-115597310D02*
X155559142Y-115930643D01*
X155559142Y-115883024D02*
X155582951Y-115906833D01*
X155630570Y-115930643D01*
X155701999Y-115930643D01*
X155749618Y-115906833D01*
X155773427Y-115859214D01*
X155773427Y-115597310D01*
X155773427Y-115859214D02*
X155797237Y-115906833D01*
X155844856Y-115930643D01*
X155916284Y-115930643D01*
X155963904Y-115906833D01*
X155987713Y-115859214D01*
X155987713Y-115597310D01*
X156582951Y-116121119D02*
X156154380Y-115478262D01*
X156749619Y-115930643D02*
X156749619Y-115597310D01*
X156749619Y-115883024D02*
X156773428Y-115906833D01*
X156821047Y-115930643D01*
X156892476Y-115930643D01*
X156940095Y-115906833D01*
X156963904Y-115859214D01*
X156963904Y-115597310D01*
X157273428Y-115597310D02*
X157225809Y-115621119D01*
X157202000Y-115644929D01*
X157178190Y-115692548D01*
X157178190Y-115835405D01*
X157202000Y-115883024D01*
X157225809Y-115906833D01*
X157273428Y-115930643D01*
X157344857Y-115930643D01*
X157392476Y-115906833D01*
X157416285Y-115883024D01*
X157440095Y-115835405D01*
X157440095Y-115692548D01*
X157416285Y-115644929D01*
X157392476Y-115621119D01*
X157344857Y-115597310D01*
X157273428Y-115597310D01*
X157868666Y-115597310D02*
X157868666Y-115859214D01*
X157844857Y-115906833D01*
X157797238Y-115930643D01*
X157702000Y-115930643D01*
X157654381Y-115906833D01*
X157868666Y-115621119D02*
X157821047Y-115597310D01*
X157702000Y-115597310D01*
X157654381Y-115621119D01*
X157630571Y-115668738D01*
X157630571Y-115716357D01*
X157654381Y-115763976D01*
X157702000Y-115787786D01*
X157821047Y-115787786D01*
X157868666Y-115811595D01*
X158106762Y-115597310D02*
X158106762Y-116097310D01*
X158321047Y-115597310D02*
X158321047Y-115859214D01*
X158297238Y-115906833D01*
X158249619Y-115930643D01*
X158178190Y-115930643D01*
X158130571Y-115906833D01*
X158106762Y-115883024D01*
X158559143Y-115930643D02*
X158559143Y-115430643D01*
X158559143Y-115906833D02*
X158606762Y-115930643D01*
X158702000Y-115930643D01*
X158749619Y-115906833D01*
X158773428Y-115883024D01*
X158797238Y-115835405D01*
X158797238Y-115692548D01*
X158773428Y-115644929D01*
X158749619Y-115621119D01*
X158702000Y-115597310D01*
X158606762Y-115597310D01*
X158559143Y-115621119D01*
X159368666Y-116121119D02*
X158940095Y-115478262D01*
X152523430Y-115224690D02*
X152547240Y-115248500D01*
X152594859Y-115272310D01*
X152713906Y-115272310D01*
X152761525Y-115248500D01*
X152785335Y-115224690D01*
X152809144Y-115177071D01*
X152809144Y-115129452D01*
X152785335Y-115058024D01*
X152499621Y-114772310D01*
X152809144Y-114772310D01*
X152975811Y-114772310D02*
X153237715Y-115105643D01*
X152975811Y-115105643D02*
X153237715Y-114772310D01*
X153666287Y-115272310D02*
X153428192Y-115272310D01*
X153404382Y-115034214D01*
X153428192Y-115058024D01*
X153475811Y-115081833D01*
X153594858Y-115081833D01*
X153642477Y-115058024D01*
X153666287Y-115034214D01*
X153690096Y-114986595D01*
X153690096Y-114867548D01*
X153666287Y-114819929D01*
X153642477Y-114796119D01*
X153594858Y-114772310D01*
X153475811Y-114772310D01*
X153428192Y-114796119D01*
X153404382Y-114819929D01*
X153832953Y-115105643D02*
X154023429Y-115105643D01*
X153904382Y-115272310D02*
X153904382Y-114843738D01*
X153928191Y-114796119D01*
X153975810Y-114772310D01*
X154023429Y-114772310D01*
X154261524Y-114772310D02*
X154213905Y-114796119D01*
X154190096Y-114819929D01*
X154166286Y-114867548D01*
X154166286Y-115010405D01*
X154190096Y-115058024D01*
X154213905Y-115081833D01*
X154261524Y-115105643D01*
X154332953Y-115105643D01*
X154380572Y-115081833D01*
X154404381Y-115058024D01*
X154428191Y-115010405D01*
X154428191Y-114867548D01*
X154404381Y-114819929D01*
X154380572Y-114796119D01*
X154332953Y-114772310D01*
X154261524Y-114772310D01*
X154928191Y-114819929D02*
X154904381Y-114796119D01*
X154832953Y-114772310D01*
X154785334Y-114772310D01*
X154713905Y-114796119D01*
X154666286Y-114843738D01*
X154642477Y-114891357D01*
X154618667Y-114986595D01*
X154618667Y-115058024D01*
X154642477Y-115153262D01*
X154666286Y-115200881D01*
X154713905Y-115248500D01*
X154785334Y-115272310D01*
X154832953Y-115272310D01*
X154904381Y-115248500D01*
X154928191Y-115224690D01*
X155213905Y-114772310D02*
X155166286Y-114796119D01*
X155142477Y-114819929D01*
X155118667Y-114867548D01*
X155118667Y-115010405D01*
X155142477Y-115058024D01*
X155166286Y-115081833D01*
X155213905Y-115105643D01*
X155285334Y-115105643D01*
X155332953Y-115081833D01*
X155356762Y-115058024D01*
X155380572Y-115010405D01*
X155380572Y-114867548D01*
X155356762Y-114819929D01*
X155332953Y-114796119D01*
X155285334Y-114772310D01*
X155213905Y-114772310D01*
X155594858Y-114772310D02*
X155594858Y-115105643D01*
X155594858Y-115010405D02*
X155618667Y-115058024D01*
X155642477Y-115081833D01*
X155690096Y-115105643D01*
X155737715Y-115105643D01*
X155832953Y-115105643D02*
X156023429Y-115105643D01*
X155904382Y-115272310D02*
X155904382Y-114843738D01*
X155928191Y-114796119D01*
X155975810Y-114772310D01*
X156023429Y-114772310D01*
X156380572Y-114796119D02*
X156332953Y-114772310D01*
X156237715Y-114772310D01*
X156190096Y-114796119D01*
X156166286Y-114843738D01*
X156166286Y-115034214D01*
X156190096Y-115081833D01*
X156237715Y-115105643D01*
X156332953Y-115105643D01*
X156380572Y-115081833D01*
X156404381Y-115034214D01*
X156404381Y-114986595D01*
X156166286Y-114938976D01*
X156571048Y-114772310D02*
X156832952Y-115105643D01*
X156571048Y-115105643D02*
X156832952Y-114772310D01*
X156999619Y-114915167D02*
X157237714Y-114915167D01*
X156952000Y-114772310D02*
X157118667Y-115272310D01*
X157285333Y-114772310D01*
X157666285Y-114772310D02*
X157666285Y-115272310D01*
X157666285Y-114796119D02*
X157618666Y-114772310D01*
X157523428Y-114772310D01*
X157475809Y-114796119D01*
X157452000Y-114819929D01*
X157428190Y-114867548D01*
X157428190Y-115010405D01*
X157452000Y-115058024D01*
X157475809Y-115081833D01*
X157523428Y-115105643D01*
X157618666Y-115105643D01*
X157666285Y-115081833D01*
X158118666Y-114772310D02*
X158118666Y-115034214D01*
X158094857Y-115081833D01*
X158047238Y-115105643D01*
X157952000Y-115105643D01*
X157904381Y-115081833D01*
X158118666Y-114796119D02*
X158071047Y-114772310D01*
X157952000Y-114772310D01*
X157904381Y-114796119D01*
X157880571Y-114843738D01*
X157880571Y-114891357D01*
X157904381Y-114938976D01*
X157952000Y-114962786D01*
X158071047Y-114962786D01*
X158118666Y-114986595D01*
X158356762Y-115105643D02*
X158356762Y-114605643D01*
X158356762Y-115081833D02*
X158404381Y-115105643D01*
X158499619Y-115105643D01*
X158547238Y-115081833D01*
X158571047Y-115058024D01*
X158594857Y-115010405D01*
X158594857Y-114867548D01*
X158571047Y-114819929D01*
X158547238Y-114796119D01*
X158499619Y-114772310D01*
X158404381Y-114772310D01*
X158356762Y-114796119D01*
X158737714Y-115105643D02*
X158928190Y-115105643D01*
X158809143Y-115272310D02*
X158809143Y-114843738D01*
X158832952Y-114796119D01*
X158880571Y-114772310D01*
X158928190Y-114772310D01*
X155344858Y-114280643D02*
X155463905Y-113947310D01*
X155582953Y-114280643D01*
X156035333Y-113947310D02*
X155749619Y-113947310D01*
X155892476Y-113947310D02*
X155892476Y-114447310D01*
X155844857Y-114375881D01*
X155797238Y-114328262D01*
X155749619Y-114304452D01*
D12*
X156845000Y-107696000D03*
D13*
X158115000Y-107696000D03*
X156845000Y-108966000D03*
X158115000Y-108966000D03*
X156845000Y-110236000D03*
X158115000Y-110236000D03*
X156845000Y-111506000D03*
X158115000Y-111506000D03*
X156845000Y-112776000D03*
X158115000Y-112776000D03*
D14*
X150368000Y-105156000D03*
D15*
X147828000Y-105156000D03*
X150368000Y-107696000D03*
X147828000Y-107696000D03*
X150368000Y-110236000D03*
X147828000Y-110236000D03*
X150368000Y-112776000D03*
X147828000Y-112776000D03*
X150368000Y-115316000D03*
X147828000Y-115316000D03*
M02*
