%TF.GenerationSoftware,KiCad,Pcbnew,5.1.8-db9833491~88~ubuntu20.04.1*%
%TF.CreationDate,2020-12-14T12:06:49-05:00*%
%TF.ProjectId,2x5toCortexAdapt,32783574-6f43-46f7-9274-657841646170,rev?*%
%TF.SameCoordinates,Original*%
%TF.FileFunction,Copper,L2,Bot*%
%TF.FilePolarity,Positive*%
%FSLAX46Y46*%
G04 Gerber Fmt 4.6, Leading zero omitted, Abs format (unit mm)*
G04 Created by KiCad (PCBNEW 5.1.8-db9833491~88~ubuntu20.04.1) date 2020-12-14 12:06:49*
%MOMM*%
%LPD*%
G01*
G04 APERTURE LIST*
%TA.AperFunction,ComponentPad*%
%ADD10R,1.000000X1.000000*%
%TD*%
%TA.AperFunction,ComponentPad*%
%ADD11C,1.000000*%
%TD*%
%TA.AperFunction,ComponentPad*%
%ADD12R,1.750000X1.750000*%
%TD*%
%TA.AperFunction,ComponentPad*%
%ADD13C,1.750000*%
%TD*%
%TA.AperFunction,Conductor*%
%ADD14C,0.350000*%
%TD*%
G04 APERTURE END LIST*
D10*
%TO.P,J2,1*%
%TO.N,/3.3V*%
X156845000Y-107696000D03*
D11*
%TO.P,J2,2*%
%TO.N,/SWDIO*%
X158115000Y-107696000D03*
%TO.P,J2,3*%
%TO.N,/GND*%
X156845000Y-108966000D03*
%TO.P,J2,4*%
%TO.N,/SWCLK*%
X158115000Y-108966000D03*
%TO.P,J2,5*%
%TO.N,/GND*%
X156845000Y-110236000D03*
%TO.P,J2,6*%
%TO.N,/SWIM*%
X158115000Y-110236000D03*
%TO.P,J2,7*%
%TO.N,Net-(J2-Pad7)*%
X156845000Y-111506000D03*
%TO.P,J2,8*%
%TO.N,Net-(J2-Pad8)*%
X158115000Y-111506000D03*
%TO.P,J2,9*%
%TO.N,/GND*%
X156845000Y-112776000D03*
%TO.P,J2,10*%
%TO.N,/RST*%
X158115000Y-112776000D03*
%TD*%
D12*
%TO.P,J1,1*%
%TO.N,/RST*%
X150368000Y-105156000D03*
D13*
%TO.P,J1,2*%
%TO.N,/SWDIO*%
X147828000Y-105156000D03*
%TO.P,J1,3*%
%TO.N,/GND*%
X150368000Y-107696000D03*
%TO.P,J1,4*%
X147828000Y-107696000D03*
%TO.P,J1,5*%
%TO.N,/SWIM*%
X150368000Y-110236000D03*
%TO.P,J1,6*%
%TO.N,/SWCLK*%
X147828000Y-110236000D03*
%TO.P,J1,7*%
%TO.N,/3.3V*%
X150368000Y-112776000D03*
%TO.P,J1,8*%
X147828000Y-112776000D03*
%TO.P,J1,9*%
%TO.N,Net-(J1-Pad9)*%
X150368000Y-115316000D03*
%TO.P,J1,10*%
%TO.N,Net-(J1-Pad10)*%
X147828000Y-115316000D03*
%TD*%
D14*
%TO.N,/GND*%
X147828000Y-107696000D02*
X150368000Y-107696000D01*
%TO.N,/SWIM*%
X159540011Y-108810989D02*
X158115000Y-110236000D01*
X159540011Y-107048178D02*
X159540011Y-108810989D01*
X158762822Y-106270989D02*
X159540011Y-107048178D01*
X154333011Y-106270989D02*
X158762822Y-106270989D01*
X150368000Y-110236000D02*
X154333011Y-106270989D01*
%TO.N,/SWCLK*%
X158990001Y-107275999D02*
X158990001Y-108090999D01*
X158535001Y-106820999D02*
X158990001Y-107275999D01*
X156044999Y-106820999D02*
X158535001Y-106820999D01*
X158990001Y-108090999D02*
X158115000Y-108966000D01*
X151379997Y-111486001D02*
X156044999Y-106820999D01*
X149078001Y-111486001D02*
X151379997Y-111486001D01*
X147828000Y-110236000D02*
X149078001Y-111486001D01*
%TO.N,/3.3V*%
X151765000Y-112776000D02*
X156845000Y-107696000D01*
X150368000Y-112776000D02*
X151765000Y-112776000D01*
%TD*%
M02*
