G04 #@! TF.FileFunction,Copper,L2,Bot,Signal*
%FSLAX46Y46*%
G04 Gerber Fmt 4.6, Leading zero omitted, Abs format (unit mm)*
G04 Created by KiCad (PCBNEW 4.0.0-rc1-stable) date 11/11/2015 5:52:51 PM*
%MOMM*%
G01*
G04 APERTURE LIST*
%ADD10C,0.100000*%
%ADD11R,1.000000X1.000000*%
%ADD12C,1.000000*%
%ADD13R,1.750000X1.750000*%
%ADD14C,1.750000*%
%ADD15C,0.600000*%
%ADD16C,0.350000*%
%ADD17C,0.254000*%
G04 APERTURE END LIST*
D10*
D11*
X156845000Y-107696000D03*
D12*
X158115000Y-107696000D03*
X156845000Y-108966000D03*
X158115000Y-108966000D03*
X156845000Y-110236000D03*
X158115000Y-110236000D03*
X156845000Y-111506000D03*
X158115000Y-111506000D03*
X156845000Y-112776000D03*
X158115000Y-112776000D03*
D13*
X150368000Y-105156000D03*
D14*
X147828000Y-105156000D03*
X150368000Y-107696000D03*
X147828000Y-107696000D03*
X150368000Y-110236000D03*
X147828000Y-110236000D03*
X150368000Y-112776000D03*
X147828000Y-112776000D03*
X150368000Y-115316000D03*
X147828000Y-115316000D03*
D15*
X152908000Y-105664000D03*
D16*
X158115000Y-110236000D02*
X158990001Y-109360999D01*
X158990001Y-109360999D02*
X158990001Y-107275999D01*
X158990001Y-107275999D02*
X158535001Y-106820999D01*
X158535001Y-106820999D02*
X155020437Y-106820999D01*
X155020437Y-106820999D02*
X151605436Y-110236000D01*
X151605436Y-110236000D02*
X150368000Y-110236000D01*
X152908000Y-105664000D02*
X152608001Y-105963999D01*
X152608001Y-105963999D02*
X152608001Y-107345999D01*
X152608001Y-107345999D02*
X150968001Y-108985999D01*
X150968001Y-108985999D02*
X149078001Y-108985999D01*
X149078001Y-108985999D02*
X148702999Y-109361001D01*
X148702999Y-109361001D02*
X147828000Y-110236000D01*
X150368000Y-112776000D02*
X151765000Y-112776000D01*
X151765000Y-112776000D02*
X156845000Y-107696000D01*
X147828000Y-112776000D02*
X150368000Y-112776000D01*
D17*
G36*
X159250585Y-103947482D02*
X159674961Y-104231042D01*
X159958517Y-104655414D01*
X160072000Y-105225931D01*
X160072000Y-115246069D01*
X159958517Y-115816586D01*
X159674961Y-116240958D01*
X159250585Y-116524518D01*
X158680069Y-116638000D01*
X151122668Y-116638000D01*
X151222229Y-116596862D01*
X151647370Y-116172463D01*
X151877738Y-115617675D01*
X151878262Y-115016960D01*
X151648862Y-114461771D01*
X151233464Y-114045647D01*
X151647370Y-113632463D01*
X151666663Y-113586000D01*
X151765000Y-113586000D01*
X152074974Y-113524342D01*
X152337756Y-113348756D01*
X155747626Y-109938887D01*
X155696888Y-110090972D01*
X155728783Y-110541375D01*
X155839783Y-110809352D01*
X155922092Y-110823566D01*
X155883355Y-110862235D01*
X155710197Y-111279244D01*
X155709803Y-111730775D01*
X155882233Y-112148086D01*
X155922449Y-112188373D01*
X155839783Y-112202648D01*
X155696888Y-112630972D01*
X155728783Y-113081375D01*
X155839783Y-113349352D01*
X156054896Y-113386499D01*
X156665395Y-112776000D01*
X156651253Y-112761858D01*
X156772173Y-112640937D01*
X156917955Y-112641065D01*
X156980063Y-112703173D01*
X156979936Y-112848954D01*
X156859143Y-112969748D01*
X156845000Y-112955605D01*
X156234501Y-113566104D01*
X156271648Y-113781217D01*
X156699972Y-113924112D01*
X157150375Y-113892217D01*
X157418352Y-113781217D01*
X157432566Y-113698908D01*
X157471235Y-113737645D01*
X157888244Y-113910803D01*
X158339775Y-113911197D01*
X158757086Y-113738767D01*
X159076645Y-113419765D01*
X159249803Y-113002756D01*
X159250197Y-112551225D01*
X159080490Y-112140505D01*
X159249803Y-111732756D01*
X159250197Y-111281225D01*
X159080490Y-110870505D01*
X159249803Y-110462756D01*
X159249992Y-110246521D01*
X159562757Y-109933756D01*
X159681460Y-109756104D01*
X159738343Y-109670973D01*
X159800001Y-109360999D01*
X159800001Y-107275999D01*
X159738343Y-106966025D01*
X159590364Y-106744559D01*
X159562757Y-106703242D01*
X159107757Y-106248243D01*
X159107756Y-106248242D01*
X158844975Y-106072657D01*
X158535001Y-106010999D01*
X155020437Y-106010999D01*
X154848334Y-106045233D01*
X154710464Y-106072656D01*
X154447681Y-106248242D01*
X153418001Y-107277922D01*
X153418001Y-106464944D01*
X153436943Y-106457117D01*
X153700192Y-106194327D01*
X153842838Y-105850799D01*
X153843162Y-105478833D01*
X153701117Y-105135057D01*
X153438327Y-104871808D01*
X153094799Y-104729162D01*
X152722833Y-104728838D01*
X152379057Y-104870883D01*
X152115808Y-105133673D01*
X151973162Y-105477201D01*
X151973156Y-105484165D01*
X151890440Y-105607958D01*
X151890440Y-104281000D01*
X151846162Y-104045683D01*
X151709948Y-103834000D01*
X158680069Y-103834000D01*
X159250585Y-103947482D01*
X159250585Y-103947482D01*
G37*
X159250585Y-103947482D02*
X159674961Y-104231042D01*
X159958517Y-104655414D01*
X160072000Y-105225931D01*
X160072000Y-115246069D01*
X159958517Y-115816586D01*
X159674961Y-116240958D01*
X159250585Y-116524518D01*
X158680069Y-116638000D01*
X151122668Y-116638000D01*
X151222229Y-116596862D01*
X151647370Y-116172463D01*
X151877738Y-115617675D01*
X151878262Y-115016960D01*
X151648862Y-114461771D01*
X151233464Y-114045647D01*
X151647370Y-113632463D01*
X151666663Y-113586000D01*
X151765000Y-113586000D01*
X152074974Y-113524342D01*
X152337756Y-113348756D01*
X155747626Y-109938887D01*
X155696888Y-110090972D01*
X155728783Y-110541375D01*
X155839783Y-110809352D01*
X155922092Y-110823566D01*
X155883355Y-110862235D01*
X155710197Y-111279244D01*
X155709803Y-111730775D01*
X155882233Y-112148086D01*
X155922449Y-112188373D01*
X155839783Y-112202648D01*
X155696888Y-112630972D01*
X155728783Y-113081375D01*
X155839783Y-113349352D01*
X156054896Y-113386499D01*
X156665395Y-112776000D01*
X156651253Y-112761858D01*
X156772173Y-112640937D01*
X156917955Y-112641065D01*
X156980063Y-112703173D01*
X156979936Y-112848954D01*
X156859143Y-112969748D01*
X156845000Y-112955605D01*
X156234501Y-113566104D01*
X156271648Y-113781217D01*
X156699972Y-113924112D01*
X157150375Y-113892217D01*
X157418352Y-113781217D01*
X157432566Y-113698908D01*
X157471235Y-113737645D01*
X157888244Y-113910803D01*
X158339775Y-113911197D01*
X158757086Y-113738767D01*
X159076645Y-113419765D01*
X159249803Y-113002756D01*
X159250197Y-112551225D01*
X159080490Y-112140505D01*
X159249803Y-111732756D01*
X159250197Y-111281225D01*
X159080490Y-110870505D01*
X159249803Y-110462756D01*
X159249992Y-110246521D01*
X159562757Y-109933756D01*
X159681460Y-109756104D01*
X159738343Y-109670973D01*
X159800001Y-109360999D01*
X159800001Y-107275999D01*
X159738343Y-106966025D01*
X159590364Y-106744559D01*
X159562757Y-106703242D01*
X159107757Y-106248243D01*
X159107756Y-106248242D01*
X158844975Y-106072657D01*
X158535001Y-106010999D01*
X155020437Y-106010999D01*
X154848334Y-106045233D01*
X154710464Y-106072656D01*
X154447681Y-106248242D01*
X153418001Y-107277922D01*
X153418001Y-106464944D01*
X153436943Y-106457117D01*
X153700192Y-106194327D01*
X153842838Y-105850799D01*
X153843162Y-105478833D01*
X153701117Y-105135057D01*
X153438327Y-104871808D01*
X153094799Y-104729162D01*
X152722833Y-104728838D01*
X152379057Y-104870883D01*
X152115808Y-105133673D01*
X151973162Y-105477201D01*
X151973156Y-105484165D01*
X151890440Y-105607958D01*
X151890440Y-104281000D01*
X151846162Y-104045683D01*
X151709948Y-103834000D01*
X158680069Y-103834000D01*
X159250585Y-103947482D01*
G36*
X156980063Y-110163173D02*
X156979935Y-110308955D01*
X156917827Y-110371063D01*
X156772046Y-110370936D01*
X156651253Y-110250143D01*
X156665395Y-110236000D01*
X156651253Y-110221858D01*
X156763497Y-110109613D01*
X156915723Y-110098833D01*
X156980063Y-110163173D01*
X156980063Y-110163173D01*
G37*
X156980063Y-110163173D02*
X156979935Y-110308955D01*
X156917827Y-110371063D01*
X156772046Y-110370936D01*
X156651253Y-110250143D01*
X156665395Y-110236000D01*
X156651253Y-110221858D01*
X156763497Y-110109613D01*
X156915723Y-110098833D01*
X156980063Y-110163173D01*
G36*
X146547138Y-106010229D02*
X146971537Y-106435370D01*
X147006024Y-106449690D01*
X146945545Y-106633940D01*
X147828000Y-107516395D01*
X148710455Y-106633940D01*
X148650120Y-106450129D01*
X148682229Y-106436862D01*
X148884024Y-106235419D01*
X148889838Y-106266317D01*
X149028910Y-106482441D01*
X149241110Y-106627431D01*
X149259138Y-106631082D01*
X149191306Y-106698914D01*
X149305938Y-106813546D01*
X149098000Y-106881800D01*
X148890060Y-106813545D01*
X148007605Y-107696000D01*
X148021748Y-107710143D01*
X147842143Y-107889748D01*
X147828000Y-107875605D01*
X146945545Y-108758060D01*
X147005880Y-108941871D01*
X146973771Y-108955138D01*
X146548630Y-109379537D01*
X146506000Y-109482201D01*
X146506000Y-108480517D01*
X146512047Y-108495116D01*
X146765940Y-108578455D01*
X147648395Y-107696000D01*
X146765940Y-106813545D01*
X146512047Y-106896884D01*
X146506000Y-106913481D01*
X146506000Y-105910668D01*
X146547138Y-106010229D01*
X146547138Y-106010229D01*
G37*
X146547138Y-106010229D02*
X146971537Y-106435370D01*
X147006024Y-106449690D01*
X146945545Y-106633940D01*
X147828000Y-107516395D01*
X148710455Y-106633940D01*
X148650120Y-106450129D01*
X148682229Y-106436862D01*
X148884024Y-106235419D01*
X148889838Y-106266317D01*
X149028910Y-106482441D01*
X149241110Y-106627431D01*
X149259138Y-106631082D01*
X149191306Y-106698914D01*
X149305938Y-106813546D01*
X149098000Y-106881800D01*
X148890060Y-106813545D01*
X148007605Y-107696000D01*
X148021748Y-107710143D01*
X147842143Y-107889748D01*
X147828000Y-107875605D01*
X146945545Y-108758060D01*
X147005880Y-108941871D01*
X146973771Y-108955138D01*
X146548630Y-109379537D01*
X146506000Y-109482201D01*
X146506000Y-108480517D01*
X146512047Y-108495116D01*
X146765940Y-108578455D01*
X147648395Y-107696000D01*
X146765940Y-106813545D01*
X146512047Y-106896884D01*
X146506000Y-106913481D01*
X146506000Y-105910668D01*
X146547138Y-106010229D01*
G36*
X156980063Y-108893173D02*
X156979935Y-109038955D01*
X156926503Y-109092387D01*
X156774276Y-109103166D01*
X156678812Y-109007702D01*
X156843073Y-108843440D01*
X156930330Y-108843440D01*
X156980063Y-108893173D01*
X156980063Y-108893173D01*
G37*
X156980063Y-108893173D02*
X156979935Y-109038955D01*
X156926503Y-109092387D01*
X156774276Y-109103166D01*
X156678812Y-109007702D01*
X156843073Y-108843440D01*
X156930330Y-108843440D01*
X156980063Y-108893173D01*
G36*
X150561748Y-107681858D02*
X150547605Y-107696000D01*
X150561748Y-107710143D01*
X150382143Y-107889748D01*
X150368000Y-107875605D01*
X150353858Y-107889748D01*
X150174253Y-107710143D01*
X150188395Y-107696000D01*
X150174253Y-107681858D01*
X150353858Y-107502253D01*
X150368000Y-107516395D01*
X150382143Y-107502253D01*
X150561748Y-107681858D01*
X150561748Y-107681858D01*
G37*
X150561748Y-107681858D02*
X150547605Y-107696000D01*
X150561748Y-107710143D01*
X150382143Y-107889748D01*
X150368000Y-107875605D01*
X150353858Y-107889748D01*
X150174253Y-107710143D01*
X150188395Y-107696000D01*
X150174253Y-107681858D01*
X150353858Y-107502253D01*
X150368000Y-107516395D01*
X150382143Y-107502253D01*
X150561748Y-107681858D01*
M02*
