%TF.GenerationSoftware,KiCad,Pcbnew,5.1.8-db9833491~88~ubuntu20.04.1*%
%TF.CreationDate,2020-12-14T12:06:49-05:00*%
%TF.ProjectId,stlink-clone-adapter,32783574-6f43-46f7-9274-657841646170,rev?*%
%TF.SameCoordinates,Original*%
%TF.FileFunction,Legend,Bot*%
%TF.FilePolarity,Positive*%
%FSLAX46Y46*%
G04 Gerber Fmt 4.6, Leading zero omitted, Abs format (unit mm)*
G04 Created by KiCad (PCBNEW 5.1.8-db9833491~88~ubuntu20.04.1) date 2020-12-14 12:06:49*
%MOMM*%
%LPD*%
G01*
G04 APERTURE LIST*
%ADD10C,0.150000*%
G04 APERTURE END LIST*
D10*
X159884571Y-104227380D02*
X159551238Y-105227380D01*
X159217904Y-104227380D01*
X158932190Y-104941666D02*
X158456000Y-104941666D01*
X159027428Y-105227380D02*
X158694095Y-104227380D01*
X158360761Y-105227380D01*
X157456000Y-105227380D02*
X157789333Y-104751190D01*
X158027428Y-105227380D02*
X158027428Y-104227380D01*
X157646476Y-104227380D01*
X157551238Y-104275000D01*
X157503619Y-104322619D01*
X157456000Y-104417857D01*
X157456000Y-104560714D01*
X157503619Y-104655952D01*
X157551238Y-104703571D01*
X157646476Y-104751190D01*
X158027428Y-104751190D01*
X157027428Y-105227380D02*
X157027428Y-104227380D01*
X156598857Y-104941666D02*
X156122666Y-104941666D01*
X156694095Y-105227380D02*
X156360761Y-104227380D01*
X156027428Y-105227380D01*
X155694095Y-105227380D02*
X155694095Y-104227380D01*
X155122666Y-105227380D01*
X155122666Y-104227380D01*
X154789333Y-104227380D02*
X154217904Y-104227380D01*
X154503619Y-105227380D02*
X154503619Y-104227380D01*
X153884571Y-104846428D02*
X153122666Y-104846428D01*
X152122666Y-105227380D02*
X152694095Y-105227380D01*
X152408380Y-105227380D02*
X152408380Y-104227380D01*
X152503619Y-104370238D01*
X152598857Y-104465476D01*
X152694095Y-104513095D01*
M02*
