G04 #@! TF.FileFunction,Legend,Top*
%FSLAX46Y46*%
G04 Gerber Fmt 4.6, Leading zero omitted, Abs format (unit mm)*
G04 Created by KiCad (PCBNEW 4.0.0-rc1-stable) date 11/11/2015 5:52:51 PM*
%MOMM*%
G01*
G04 APERTURE LIST*
%ADD10C,0.100000*%
%ADD11C,0.150000*%
%ADD12C,0.120000*%
G04 APERTURE END LIST*
D10*
D11*
X154880000Y-103836000D02*
X160080000Y-103836000D01*
X154880000Y-116636000D02*
X154880000Y-103836000D01*
X160080000Y-116636000D02*
X154880000Y-116636000D01*
X160080000Y-103836000D02*
X160080000Y-116636000D01*
D12*
X153674000Y-115667286D02*
X153674000Y-116203000D01*
X153638286Y-116310143D01*
X153566857Y-116381571D01*
X153459714Y-116417286D01*
X153388286Y-116417286D01*
X153995429Y-115738714D02*
X154031143Y-115703000D01*
X154102572Y-115667286D01*
X154281143Y-115667286D01*
X154352572Y-115703000D01*
X154388286Y-115738714D01*
X154424001Y-115810143D01*
X154424001Y-115881571D01*
X154388286Y-115988714D01*
X153959715Y-116417286D01*
X154424001Y-116417286D01*
X156159286Y-108075286D02*
X155730714Y-108075286D01*
X155945000Y-108075286D02*
X155945000Y-107325286D01*
X155873571Y-107432429D01*
X155802143Y-107503857D01*
X155730714Y-107539571D01*
X152150000Y-104237286D02*
X152150000Y-104773000D01*
X152114286Y-104880143D01*
X152042857Y-104951571D01*
X151935714Y-104987286D01*
X151864286Y-104987286D01*
X152900001Y-104987286D02*
X152471429Y-104987286D01*
X152685715Y-104987286D02*
X152685715Y-104237286D01*
X152614286Y-104344429D01*
X152542858Y-104415857D01*
X152471429Y-104451571D01*
M02*
